<svg width="1280" height="720" viewBox="0 0 1280 720" xmlns="http://www.w3.org/2000/svg">
  <rect width="1280" height="720" fill="#F2F5FA"/>
  <rect x="44" y="44" width="1192" height="632" rx="32" fill="#10233F"/>

  <rect x="78" y="82" width="456" height="556" rx="28" fill="#10233F"/>
  <text x="92" y="124" fill="#FF8A57" font-size="18" font-family="Arial, Helvetica, sans-serif" font-weight="700">YEN IMS</text>
  <text x="92" y="206" fill="#FFFFFF" font-size="56" font-family="Arial, Helvetica, sans-serif" font-weight="700">Inventory</text>
  <text x="92" y="268" fill="#FFFFFF" font-size="56" font-family="Arial, Helvetica, sans-serif" font-weight="700">Management</text>
  <text x="92" y="330" fill="#FFFFFF" font-size="56" font-family="Arial, Helvetica, sans-serif" font-weight="700">System</text>
  <text x="92" y="386" fill="#AAB8CC" font-size="24" font-family="Arial, Helvetica, sans-serif">Products, warehouses, stock flows,</text>
  <text x="92" y="420" fill="#AAB8CC" font-size="24" font-family="Arial, Helvetica, sans-serif">audit logs and reports in one console.</text>

  <rect x="92" y="474" width="170" height="54" rx="16" fill="#FF8A57"/>
  <text x="177" y="509" text-anchor="middle" fill="#FFFFFF" font-size="22" font-family="Arial, Helvetica, sans-serif" font-weight="700">Admin Ready</text>
  <rect x="278" y="474" width="196" height="54" rx="16" fill="#1D365A"/>
  <text x="376" y="509" text-anchor="middle" fill="#DCE7F5" font-size="22" font-family="Arial, Helvetica, sans-serif" font-weight="700">30 Min Timeout</text>

  <rect x="92" y="566" width="126" height="36" rx="18" fill="#1D365A"/>
  <text x="155" y="590" text-anchor="middle" fill="#DCE7F5" font-size="17" font-family="Arial, Helvetica, sans-serif" font-weight="700">Roles</text>
  <rect x="230" y="566" width="132" height="36" rx="18" fill="#1D365A"/>
  <text x="296" y="590" text-anchor="middle" fill="#DCE7F5" font-size="17" font-family="Arial, Helvetica, sans-serif" font-weight="700">Stocktake</text>
  <rect x="374" y="566" width="130" height="36" rx="18" fill="#1D365A"/>
  <text x="439" y="590" text-anchor="middle" fill="#DCE7F5" font-size="17" font-family="Arial, Helvetica, sans-serif" font-weight="700">CSV Export</text>

  <rect x="548" y="82" width="640" height="556" rx="28" fill="#EAF0F8"/>
  <rect x="582" y="114" width="572" height="72" rx="20" fill="#132844"/>
  <text x="618" y="158" fill="#FFFFFF" font-size="30" font-family="Arial, Helvetica, sans-serif" font-weight="700">Yen IMS Admin</text>
  <text x="926" y="158" fill="#FFFFFF" font-size="18" font-family="Arial, Helvetica, sans-serif" font-weight="700">admin / secure session</text>

  <rect x="582" y="200" width="182" height="404" rx="22" fill="#1D365A"/>
  <rect x="604" y="230" width="138" height="46" rx="14" fill="#FF8A57"/>
  <text x="673" y="260" text-anchor="middle" fill="#FFFFFF" font-size="20" font-family="Arial, Helvetica, sans-serif" font-weight="700">Dashboard</text>
  <text x="616" y="334" fill="#DCE7F5" font-size="22" font-family="Arial, Helvetica, sans-serif" font-weight="700">Products</text>
  <text x="616" y="390" fill="#DCE7F5" font-size="22" font-family="Arial, Helvetica, sans-serif" font-weight="700">Documents</text>
  <text x="616" y="446" fill="#DCE7F5" font-size="22" font-family="Arial, Helvetica, sans-serif" font-weight="700">Warehouses</text>
  <text x="616" y="502" fill="#DCE7F5" font-size="22" font-family="Arial, Helvetica, sans-serif" font-weight="700">Users</text>
  <text x="616" y="558" fill="#DCE7F5" font-size="22" font-family="Arial, Helvetica, sans-serif" font-weight="700">Reports</text>

  <text x="792" y="252" fill="#1D365A" font-size="36" font-family="Arial, Helvetica, sans-serif" font-weight="700">Operational Overview</text>
  <text x="792" y="286" fill="#71829A" font-size="20" font-family="Arial, Helvetica, sans-serif">Track products, document flow and inventory status from one screen.</text>

  <rect x="792" y="324" width="148" height="94" rx="20" fill="#FFF1E8"/>
  <rect x="958" y="324" width="148" height="94" rx="20" fill="#EDF4FF"/>
  <rect x="792" y="434" width="148" height="94" rx="20" fill="#EAF8F0"/>
  <rect x="958" y="434" width="148" height="94" rx="20" fill="#FFF4D8"/>

  <text x="816" y="358" fill="#9E592E" font-size="16" font-family="Arial, Helvetica, sans-serif" font-weight="700">Products</text>
  <text x="816" y="397" fill="#1D365A" font-size="34" font-family="Arial, Helvetica, sans-serif" font-weight="700">128</text>
  <text x="982" y="358" fill="#2F5D9A" font-size="16" font-family="Arial, Helvetica, sans-serif" font-weight="700">Documents</text>
  <text x="982" y="397" fill="#1D365A" font-size="34" font-family="Arial, Helvetica, sans-serif" font-weight="700">42</text>
  <text x="816" y="468" fill="#2B7A52" font-size="16" font-family="Arial, Helvetica, sans-serif" font-weight="700">Warehouses</text>
  <text x="816" y="507" fill="#1D365A" font-size="34" font-family="Arial, Helvetica, sans-serif" font-weight="700">6</text>
  <text x="982" y="468" fill="#9A7513" font-size="16" font-family="Arial, Helvetica, sans-serif" font-weight="700">Low Stock</text>
  <text x="982" y="507" fill="#1D365A" font-size="34" font-family="Arial, Helvetica, sans-serif" font-weight="700">9</text>

  <rect x="1124" y="324" width="30" height="204" rx="15" fill="#DCE5F2"/>
  <rect x="1128" y="352" width="22" height="78" rx="11" fill="#FF8A57"/>

  <rect x="792" y="550" width="362" height="54" rx="18" fill="#FFFFFF"/>
  <text x="818" y="583" fill="#1D365A" font-size="19" font-family="Arial, Helvetica, sans-serif" font-weight="700">Purchase, sales, returns, stocktake, audit</text>
</svg>
