<svg width="1280" height="720" viewBox="0 0 1280 720" xmlns="http://www.w3.org/2000/svg">
  <rect width="1280" height="720" fill="#EEF3F9"/>
  <rect x="40" y="40" width="1200" height="640" rx="30" fill="#112543"/>

  <rect x="74" y="74" width="454" height="572" rx="28" fill="#112543"/>
  <text x="92" y="118" fill="#FF8A57" font-size="18" font-family="Arial, Helvetica, sans-serif" font-weight="700">YEN IMS</text>
  <text x="92" y="198" fill="#FFFFFF" font-size="58" font-family="Arial, Helvetica, sans-serif" font-weight="700">Simple</text>
  <text x="92" y="260" fill="#FFFFFF" font-size="58" font-family="Arial, Helvetica, sans-serif" font-weight="700">Inventory</text>
  <text x="92" y="322" fill="#FFFFFF" font-size="58" font-family="Arial, Helvetica, sans-serif" font-weight="700">Control</text>

  <text x="92" y="388" fill="#AEBBD0" font-size="24" font-family="Arial, Helvetica, sans-serif">Products, stock flow, users,</text>
  <text x="92" y="422" fill="#AEBBD0" font-size="24" font-family="Arial, Helvetica, sans-serif">audit and reports.</text>

  <rect x="92" y="468" width="164" height="52" rx="16" fill="#FF8A57"/>
  <text x="174" y="502" text-anchor="middle" fill="#FFFFFF" font-size="21" font-family="Arial, Helvetica, sans-serif" font-weight="700">Admin Ready</text>
  <rect x="272" y="468" width="196" height="52" rx="16" fill="#1C355B"/>
  <text x="370" y="502" text-anchor="middle" fill="#D8E3F3" font-size="21" font-family="Arial, Helvetica, sans-serif" font-weight="700">30 Min Timeout</text>

  <rect x="92" y="562" width="116" height="36" rx="18" fill="#1C355B"/>
  <text x="150" y="586" text-anchor="middle" fill="#D8E3F3" font-size="16" font-family="Arial, Helvetica, sans-serif" font-weight="700">Roles</text>
  <rect x="220" y="562" width="126" height="36" rx="18" fill="#1C355B"/>
  <text x="283" y="586" text-anchor="middle" fill="#D8E3F3" font-size="16" font-family="Arial, Helvetica, sans-serif" font-weight="700">Stocktake</text>
  <rect x="358" y="562" width="126" height="36" rx="18" fill="#1C355B"/>
  <text x="421" y="586" text-anchor="middle" fill="#D8E3F3" font-size="16" font-family="Arial, Helvetica, sans-serif" font-weight="700">CSV Export</text>

  <rect x="546" y="74" width="660" height="572" rx="28" fill="#F5F8FC"/>
  <rect x="578" y="108" width="596" height="74" rx="20" fill="#132844"/>
  <text x="612" y="153" fill="#FFFFFF" font-size="30" font-family="Arial, Helvetica, sans-serif" font-weight="700">Yen IMS Admin</text>
  <text x="980" y="153" fill="#FFFFFF" font-size="17" font-family="Arial, Helvetica, sans-serif" font-weight="700">secure session</text>

  <rect x="578" y="198" width="180" height="410" rx="24" fill="#1D365A"/>
  <rect x="600" y="228" width="136" height="46" rx="14" fill="#FF8A57"/>
  <text x="668" y="258" text-anchor="middle" fill="#FFFFFF" font-size="20" font-family="Arial, Helvetica, sans-serif" font-weight="700">Dashboard</text>
  <text x="612" y="334" fill="#DCE6F4" font-size="22" font-family="Arial, Helvetica, sans-serif" font-weight="700">Products</text>
  <text x="612" y="388" fill="#DCE6F4" font-size="22" font-family="Arial, Helvetica, sans-serif" font-weight="700">Documents</text>
  <text x="612" y="442" fill="#DCE6F4" font-size="22" font-family="Arial, Helvetica, sans-serif" font-weight="700">Warehouses</text>
  <text x="612" y="496" fill="#DCE6F4" font-size="22" font-family="Arial, Helvetica, sans-serif" font-weight="700">Users</text>
  <text x="612" y="550" fill="#DCE6F4" font-size="22" font-family="Arial, Helvetica, sans-serif" font-weight="700">Reports</text>

  <text x="786" y="240" fill="#193152" font-size="36" font-family="Arial, Helvetica, sans-serif" font-weight="700">Overview</text>
  <text x="786" y="274" fill="#71839C" font-size="20" font-family="Arial, Helvetica, sans-serif">Track items and stock actions from one view.</text>

  <rect x="786" y="314" width="162" height="96" rx="20" fill="#FFF1E8"/>
  <rect x="966" y="314" width="162" height="96" rx="20" fill="#EDF4FF"/>
  <rect x="786" y="428" width="162" height="96" rx="20" fill="#EAF8F0"/>
  <rect x="966" y="428" width="162" height="96" rx="20" fill="#FFF4D8"/>

  <text x="812" y="350" fill="#9D572F" font-size="16" font-family="Arial, Helvetica, sans-serif" font-weight="700">Products</text>
  <text x="812" y="388" fill="#193152" font-size="34" font-family="Arial, Helvetica, sans-serif" font-weight="700">128</text>
  <text x="992" y="350" fill="#2D5A97" font-size="16" font-family="Arial, Helvetica, sans-serif" font-weight="700">Docs</text>
  <text x="992" y="388" fill="#193152" font-size="34" font-family="Arial, Helvetica, sans-serif" font-weight="700">42</text>
  <text x="812" y="464" fill="#2B7A52" font-size="16" font-family="Arial, Helvetica, sans-serif" font-weight="700">Warehouses</text>
  <text x="812" y="502" fill="#193152" font-size="34" font-family="Arial, Helvetica, sans-serif" font-weight="700">6</text>
  <text x="992" y="464" fill="#9A7513" font-size="16" font-family="Arial, Helvetica, sans-serif" font-weight="700">Low Stock</text>
  <text x="992" y="502" fill="#193152" font-size="34" font-family="Arial, Helvetica, sans-serif" font-weight="700">9</text>

  <rect x="786" y="550" width="342" height="58" rx="18" fill="#FFFFFF"/>
  <text x="812" y="585" fill="#193152" font-size="18" font-family="Arial, Helvetica, sans-serif" font-weight="700">Purchase • Sales • Return • Audit</text>
</svg>
